<svg xmlns="http://www.w3.org/2000/svg" width="309.96" height="249.01" viewBox="0 0 309.96 249.01"><path d="M62.25-108.937c-7.83,0-16.594,4.32-20.474,12.893C-.535-11.278.875-15.363.875-7.776,0,13.666,27.842,31.125,62.25,31.125S124.5,13.68,124.5-7.344c0-7.84.669-4.253-41.4-88.269A22.763,22.763,0,0,0,62.25-108.937ZM27.215-15.562C30.194-21.7,53.224-67.356,62.221-85.156h0C71.884-65.883,94.45-21.4,97.309-15.562ZM252.891,7.781H167.735V-142.056a38.66,38.66,0,0,0,26.85-33.114l62.3-19.935a11.669,11.669,0,0,0,7.562-14.668,11.677,11.677,0,0,0-14.673-7.553l-60.013,19.21a38.737,38.737,0,0,0-33.683-19.769,38.537,38.537,0,0,0-38.469,38.906,38.054,38.054,0,0,0,.4,3.959l-63.2,19.978A11.648,11.648,0,0,0,47.242-140.4a11.661,11.661,0,0,0,11.117,8.122,11.619,11.619,0,0,0,3.556-.562l64.092-20.642a42.213,42.213,0,0,0,17.946,11.429V15.563a15.564,15.564,0,0,0,15.563,15.563h93.375a11.672,11.672,0,0,0,0-23.344ZM155.625-163.406a15.583,15.583,0,0,1-15.562-15.562,15.583,15.583,0,0,1,15.563-15.562,15.583,15.583,0,0,1,15.563,15.563A15.6,15.6,0,0,1,155.625-163.406ZM269.863-158.3A23.114,23.114,0,0,0,249-171.187a23.113,23.113,0,0,0-20.893,12.893C185.734-73.528,186.75-77.613,186.75-70.026c0,21.462,27.842,38.469,62.25,38.469S310.812-49,310.812-70.026C310.812-77.861,311.931-74.262,269.863-158.3ZM213.547-77.812c2.979-6.137,34.977-69.594,35.035-69.594,9.668,19.273,32.2,63.758,35.055,69.594Z" transform="translate(-0.855 217.885)" fill="#0967d2"/></svg>